<svg version="1.1" xmlns="http://www.w3.org/2000/svg" xmlns:xlink="http://www.w3.org/1999/xlink" width="724.5" height="376.5"><defs/><g transform="translate(326.2999113980241,-4.064310932565604) scale(1.5,1.5)"><path fill="rgb(240,240,255)" stroke="rgb(153,153,153)" paint-order="fill stroke markers" d=" M -215.53327426534932 19.709540621710417 L -215.5332742653494 158.11010605197404 L 262.803674846052 158.11010605197407 L 262.8036748460521 19.70954062171043 Z" fill-opacity="1" stroke-opacity="1" stroke-miterlimit="10" stroke-width="2" stroke-dasharray="4,2"/><text fill="rgb(51,51,51)" stroke="none" font-family="Helvetica Neue, Helvetica, sans-serif" font-size="14px" font-style="normal" font-weight="normal" text-decoration="normal" x="23.63520029035135" y="19.709540621710403" text-anchor="middle" dominant-baseline="text-after-edge" fill-opacity="1">test</text><path fill="rgb(240,240,255)" stroke="rgb(153,153,153)" paint-order="fill stroke markers" d=" M -208.5332742653493 40.70954062171042 L -208.5332742653494 151.11010605197404 L 255.803674846052 151.11010605197407 L 255.8036748460521 40.709540621710424 Z" fill-opacity="1" stroke-opacity="1" stroke-miterlimit="10" stroke-width="2" stroke-dasharray="4,2"/><text fill="rgb(51,51,51)" stroke="none" font-family="Helvetica Neue, Helvetica, sans-serif" font-size="14px" font-style="normal" font-weight="normal" text-decoration="normal" x="23.635200290351364" y="40.7095406217104" text-anchor="middle" dominant-baseline="text-after-edge" fill-opacity="1">dummy</text><path fill="rgb(240,240,255)" stroke="rgb(153,153,153)" paint-order="fill stroke markers" d=" M -201.5332742653494 61.70954062171041 L -201.5332742653494 123.70954062171039 L -96.53327426534943 123.7095406217104 L -96.5332742653494 61.70954062171042 Z" fill-opacity="1" stroke-opacity="1" stroke-miterlimit="10" stroke-width="2" stroke-dasharray="4,2"/><text fill="rgb(51,51,51)" stroke="none" font-family="Helvetica Neue, Helvetica, sans-serif" font-size="14px" font-style="normal" font-weight="normal" text-decoration="normal" x="-149.0332742653494" y="61.7095406217104" text-anchor="middle" dominant-baseline="text-after-edge" fill-opacity="1">publisher</text><path fill="rgb(240,240,255)" stroke="rgb(153,153,153)" paint-order="fill stroke markers" d=" M 135.80367484605216 82.11010605197407 L 135.80367484605213 144.11010605197407 L 248.8036748460521 144.11010605197407 L 248.80367484605213 82.11010605197409 Z" fill-opacity="1" stroke-opacity="1" stroke-miterlimit="10" stroke-width="2" stroke-dasharray="4,2"/><text fill="rgb(51,51,51)" stroke="none" font-family="Helvetica Neue, Helvetica, sans-serif" font-size="14px" font-style="normal" font-weight="normal" text-decoration="normal" x="192.30367484605213" y="82.11010605197407" text-anchor="middle" dominant-baseline="text-after-edge" fill-opacity="1">subscriber</text><path fill="none" stroke="rgb(60,179,113)" paint-order="fill stroke markers" d=" M -115.73942871825781 117.7095406217104 L 13.678285092392457 214.88794678359312" stroke-opacity="1" stroke-linejoin="round" stroke-miterlimit="10" stroke-width="3"/><path fill="rgb(60,179,113)" stroke="none" paint-order="stroke fill markers" d=" M 8.907227421542505 216.74523208785413 L 18.476235715529555 218.49067766695623 L 14.131187202418992 209.78820368430533 Z" fill-opacity="1"/><text fill="rgb(0,0,0)" stroke="none" font-family="Helvetica Neue, Helvetica, sans-serif" font-size="14px" font-style="normal" font-weight="normal" text-decoration="normal" x="-49.8310841571484" y="174.19942642349253" text-anchor="middle" dominant-baseline="text-after-edge" fill-opacity="1">/rosout</text><path fill="none" stroke="rgb(60,179,113)" paint-order="fill stroke markers" d=" M 159.5515865891106 138.11010605197407 L 59.172822386551985 214.73023132084467" stroke-opacity="1" stroke-linejoin="round" stroke-miterlimit="10" stroke-width="3"/><path fill="rgb(60,179,113)" stroke="none" paint-order="stroke fill markers" d=" M 58.67967165875076 209.63422284757178 L 54.403465043221786 218.3707299860858 L 63.95839472335038 216.54979099540057 Z" fill-opacity="1"/><text fill="rgb(0,0,0)" stroke="none" font-family="Helvetica Neue, Helvetica, sans-serif" font-size="14px" font-style="normal" font-weight="normal" text-decoration="normal" x="108.16986515199875" y="184.33029335271965" text-anchor="middle" dominant-baseline="text-after-edge" fill-opacity="1">/rosout</text><path fill="none" stroke="rgb(60,179,113)" paint-order="fill stroke markers" d=" M -102.53327426534942 90.00387687839621 Q 20.828404065329508 82.8259151499294 135.89511418540724 103.14780879605638" stroke-opacity="1" stroke-linejoin="round" stroke-miterlimit="10" stroke-width="3"/><path fill="rgb(60,179,113)" stroke="none" paint-order="stroke fill markers" d=" M 132.50703235186916 107.05225086481131 L 141.80367484605213 104.1913177416238 L 133.93694285099235 98.47056362018992 Z" fill-opacity="1"/><text fill="rgb(0,0,0)" stroke="none" font-family="Helvetica Neue, Helvetica, sans-serif" font-size="14px" font-style="normal" font-weight="normal" text-decoration="normal" x="18.75466201267921" y="96.70087899357785" text-anchor="middle" dominant-baseline="text-after-edge" fill-opacity="1">/test/dummy/pointcloud_topic</text><path fill="none" stroke="rgb(197,160,57)" paint-order="fill stroke markers" d=" M -102.5332742653494 101.05165748365721 Q 18.44199651537322 122.75466493007544 135.81288522197863 116.24379687925097" stroke-opacity="1" stroke-linejoin="round" stroke-miterlimit="10" stroke-width="3"/><path fill="rgb(197,160,57)" stroke="none" paint-order="stroke fill markers" d=" M 133.31200129181767 120.65530824528587 L 141.80367484605216 115.91147221857558 L 132.91360189214322 111.96443499121416 Z" fill-opacity="1"/><text fill="rgb(0,0,0)" stroke="none" font-family="Helvetica Neue, Helvetica, sans-serif" font-size="14px" font-style="normal" font-weight="normal" text-decoration="normal" x="17.540900996843916" y="122.70119605576475" text-anchor="middle" dominant-baseline="text-after-edge" fill-opacity="1">/test/dummy/pointcloud_service</text><path fill="rgb(153,153,255)" stroke="none" paint-order="stroke fill markers" d=" M -149.0332742653494 67.7095406217104 L -110.5332742653494 67.7095406217104 L -110.5332742653494 67.7095406217104 A 8 8 0 0 1 -102.5332742653494 75.7095406217104 L -102.5332742653494 109.7095406217104 L -102.5332742653494 109.7095406217104 A 8 8 0 0 1 -110.5332742653494 117.7095406217104 L -187.5332742653494 117.7095406217104 L -187.5332742653494 117.7095406217104 A 8 8 0 0 1 -195.5332742653494 109.7095406217104 L -195.5332742653494 75.7095406217104 L -195.5332742653494 75.7095406217104 A 8 8 0 0 1 -187.5332742653494 67.7095406217104 L -149.0332742653494 67.7095406217104 Z" fill-opacity="1"/><text fill="rgb(0,0,0)" stroke="none" font-family="Helvetica Neue, Helvetica, sans-serif" font-size="14px" font-style="normal" font-weight="normal" text-decoration="normal" x="-149.0332742653494" y="99.7095406217104" text-anchor="middle" dominant-baseline="text-after-edge" fill-opacity="1">pcl_publisher</text><path fill="rgb(153,153,255)" stroke="none" paint-order="stroke fill markers" d=" M 192.30367484605213 88.11010605197407 L 234.80367484605213 88.11010605197407 L 234.80367484605213 88.11010605197407 A 8 8 0 0 1 242.80367484605213 96.11010605197407 L 242.80367484605213 130.11010605197407 L 242.80367484605213 130.11010605197407 A 8 8 0 0 1 234.80367484605213 138.11010605197407 L 149.80367484605213 138.11010605197407 L 149.80367484605213 138.11010605197407 A 8 8 0 0 1 141.80367484605213 130.11010605197407 L 141.80367484605213 96.11010605197407 L 141.80367484605213 96.11010605197407 A 8 8 0 0 1 149.80367484605213 88.11010605197407 L 192.30367484605213 88.11010605197407 Z" fill-opacity="1"/><text fill="rgb(0,0,0)" stroke="none" font-family="Helvetica Neue, Helvetica, sans-serif" font-size="14px" font-style="normal" font-weight="normal" text-decoration="normal" x="192.30367484605213" y="120.11010605197407" text-anchor="middle" dominant-baseline="text-after-edge" fill-opacity="1">pcl_subscriber</text><path fill="rgb(60,179,113)" stroke="none" paint-order="stroke fill markers" d=" M 61.00798591381618 232.03053007960565 L 60.93246059027781 233.59971199416256 L 60.70635025839705 235.15921938041026 L 60.331048963559255 236.69943735672376 L 59.808870563047435 238.2108699671046 L 59.143034460342705 239.68419872690745 L 58.337645756431186 241.1103400743966 L 57.39766994049144 242.48050137392462 L 56.328902276002395 243.7862351254551 L 55.137932071016934 245.01949104620934 L 53.8321020528866 246.1726657033366 L 52.41946309790568 247.23864939160626 L 50.90872459498177 248.2108699671046 L 49.309200749356926 249.0833333666875 L 47.63075315743507 249.85066056337303 L 45.88373000676088 250.50812072983138 L 44.07890227600239 251.05166040550873 L 42.22739732828586 251.47792848755918 L 40.340630307301836 251.7842968915084 L 38.43023375914838 251.96887675426822 L 36.50798591381618 252.03053007960565 L 34.58573806848398 251.96887675426822 L 32.67534152033052 251.7842968915084 L 30.788574499346495 251.47792848755918 L 28.937069551629968 251.05166040550873 L 27.132241820871478 250.50812072983138 L 25.385218670197283 249.85066056337303 L 23.70677107827543 249.0833333666875 L 22.10724723265059 248.2108699671046 L 20.59650872972668 247.2386493916063 L 19.183869774745766 246.1726657033366 L 17.87803975661542 245.01949104620934 L 16.687069551629968 243.7862351254551 L 15.61830188714092 242.48050137392462 L 14.678326071201166 241.1103400743966 L 13.872937367289651 239.68419872690745 L 13.207101264584917 238.2108699671046 L 12.684922864073101 236.69943735672376 L 12.309621569235304 235.15921938041026 L 12.083511237354543 233.59971199416256 L 12.007985913816178 232.03053007960565 L 12.083511237354543 230.46134816504875 L 12.309621569235304 228.90184077880104 L 12.684922864073101 227.36162280248755 L 13.207101264584914 225.8501901921067 L 13.872937367289651 224.37686143230385 L 14.678326071201166 222.95072008481472 L 15.618301887140916 221.58055878528668 L 16.687069551629964 220.2748250337562 L 17.87803975661542 219.04156911300197 L 19.18386977474576 217.8883944558747 L 20.596508729726665 216.82241076760505 L 22.107247232650586 215.8501901921067 L 23.706771078275438 214.9777267925238 L 25.385218670197297 214.21039959583828 L 27.132241820871506 213.5529394293799 L 28.937069551630003 213.00939975370258 L 30.788574499346545 212.5831316716521 L 32.67534152033058 212.2767632677029 L 34.58573806848405 212.09218340494309 L 36.50798591381626 212.03053007960565 L 38.43023375914847 212.0921834049431 L 40.340630307301936 212.2767632677029 L 42.227397328285974 212.58313167165215 L 44.07890227600251 213.0093997537026 L 45.883730006761006 213.55293942937996 L 47.63075315743521 214.21039959583834 L 49.30920074935706 214.97772679252387 L 50.908724594981905 215.8501901921068 L 52.41946309790581 216.82241076760513 L 53.832102052886725 217.88839445587482 L 55.13793207101706 219.0415691130021 L 56.328902276002516 220.27482503375634 L 57.397669940491554 221.58055878528683 L 58.3376457564313 222.9507200848149 L 59.1430344603428 224.37686143230405 L 59.80887056304752 225.8501901921069 L 60.33104896355931 227.36162280248774 L 60.706350258397094 228.90184077880127 L 60.932460590277834 230.461348165049 Z" fill-opacity="1"/><text fill="rgb(0,0,0)" stroke="none" font-family="Helvetica Neue, Helvetica, sans-serif" font-size="14px" font-style="normal" font-weight="normal" text-decoration="normal" x="36.50798591381618" y="239.03053007960565" text-anchor="middle" dominant-baseline="text-after-edge" fill-opacity="1">rosout</text><g transform="scale(0.6666666666666666,0.6666666666666666) translate(-326.2999113980241,4.064310932565604)"/></g></svg>